<mxfile host="app.diagrams.net" modified="2023-05-04T13:06:13.595Z" agent="Mozilla/5.0 (Windows NT 10.0; Win64; x64) AppleWebKit/537.36 (KHTML, like Gecko) Chrome/112.0.0.0 Safari/537.36" etag="r0QUkJKGvnc071bZjMi-" version="21.1.1" type="github">
  <diagram name="第 1 页" id="QuWcqPKGt2UKDQMrj7UH">
    <mxGraphModel dx="1235" dy="674" grid="1" gridSize="10" guides="1" tooltips="1" connect="1" arrows="1" fold="1" page="1" pageScale="1" pageWidth="827" pageHeight="1169" math="0" shadow="0">
      <root>
        <mxCell id="0" />
        <mxCell id="1" parent="0" />
        <mxCell id="UYJxip9CrR3DzAZS0dff-2" value="課程資料" style="rounded=0;whiteSpace=wrap;html=1;" vertex="1" parent="1">
          <mxGeometry x="254" y="320" width="120" height="60" as="geometry" />
        </mxCell>
        <mxCell id="UYJxip9CrR3DzAZS0dff-3" value="學生資料" style="rounded=0;whiteSpace=wrap;html=1;" vertex="1" parent="1">
          <mxGeometry x="254" y="555" width="120" height="60" as="geometry" />
        </mxCell>
        <mxCell id="UYJxip9CrR3DzAZS0dff-4" value="開課老師資料" style="rounded=0;whiteSpace=wrap;html=1;" vertex="1" parent="1">
          <mxGeometry x="254" y="70" width="120" height="60" as="geometry" />
        </mxCell>
        <mxCell id="UYJxip9CrR3DzAZS0dff-9" value="開課" style="rhombus;whiteSpace=wrap;html=1;" vertex="1" parent="1">
          <mxGeometry x="214" y="190" width="200" height="80" as="geometry" />
        </mxCell>
        <mxCell id="UYJxip9CrR3DzAZS0dff-15" value="" style="endArrow=classic;startArrow=classic;html=1;rounded=0;entryX=0.5;entryY=1;entryDx=0;entryDy=0;exitX=0.5;exitY=0;exitDx=0;exitDy=0;strokeColor=none;" edge="1" parent="1" source="UYJxip9CrR3DzAZS0dff-2" target="UYJxip9CrR3DzAZS0dff-9">
          <mxGeometry width="50" height="50" relative="1" as="geometry">
            <mxPoint x="289" y="330" as="sourcePoint" />
            <mxPoint x="339" y="280" as="targetPoint" />
          </mxGeometry>
        </mxCell>
        <mxCell id="UYJxip9CrR3DzAZS0dff-20" value="" style="endArrow=none;html=1;rounded=0;entryX=0.5;entryY=1;entryDx=0;entryDy=0;exitX=0.5;exitY=0;exitDx=0;exitDy=0;" edge="1" parent="1" source="UYJxip9CrR3DzAZS0dff-9" target="UYJxip9CrR3DzAZS0dff-4">
          <mxGeometry width="50" height="50" relative="1" as="geometry">
            <mxPoint x="289" y="180" as="sourcePoint" />
            <mxPoint x="339" y="130" as="targetPoint" />
          </mxGeometry>
        </mxCell>
        <mxCell id="UYJxip9CrR3DzAZS0dff-21" value="" style="endArrow=none;html=1;rounded=0;exitX=0.5;exitY=0;exitDx=0;exitDy=0;" edge="1" parent="1" source="UYJxip9CrR3DzAZS0dff-2" target="UYJxip9CrR3DzAZS0dff-9">
          <mxGeometry width="50" height="50" relative="1" as="geometry">
            <mxPoint x="313.5" y="340" as="sourcePoint" />
            <mxPoint x="314" y="280" as="targetPoint" />
          </mxGeometry>
        </mxCell>
        <mxCell id="UYJxip9CrR3DzAZS0dff-22" value="(1,n)" style="text;html=1;strokeColor=none;fillColor=none;align=center;verticalAlign=middle;whiteSpace=wrap;rounded=0;" vertex="1" parent="1">
          <mxGeometry x="324" y="140" width="60" height="30" as="geometry" />
        </mxCell>
        <mxCell id="UYJxip9CrR3DzAZS0dff-23" value="" style="endArrow=none;html=1;rounded=0;exitX=0.5;exitY=0;exitDx=0;exitDy=0;entryX=0.5;entryY=1;entryDx=0;entryDy=0;" edge="1" parent="1" source="UYJxip9CrR3DzAZS0dff-3" target="UYJxip9CrR3DzAZS0dff-29">
          <mxGeometry width="50" height="50" relative="1" as="geometry">
            <mxPoint x="313.5" y="460" as="sourcePoint" />
            <mxPoint x="314" y="480" as="targetPoint" />
          </mxGeometry>
        </mxCell>
        <mxCell id="UYJxip9CrR3DzAZS0dff-26" value="(1,n)" style="text;html=1;strokeColor=none;fillColor=none;align=center;verticalAlign=middle;whiteSpace=wrap;rounded=0;" vertex="1" parent="1">
          <mxGeometry x="324" y="510" width="80" height="30" as="geometry" />
        </mxCell>
        <mxCell id="UYJxip9CrR3DzAZS0dff-27" value="(1,1)" style="text;html=1;strokeColor=none;fillColor=none;align=center;verticalAlign=middle;whiteSpace=wrap;rounded=0;" vertex="1" parent="1">
          <mxGeometry x="324" y="280" width="60" height="30" as="geometry" />
        </mxCell>
        <mxCell id="UYJxip9CrR3DzAZS0dff-29" value="修課" style="rhombus;whiteSpace=wrap;html=1;" vertex="1" parent="1">
          <mxGeometry x="214" y="430" width="200" height="80" as="geometry" />
        </mxCell>
        <mxCell id="UYJxip9CrR3DzAZS0dff-32" value="" style="endArrow=none;html=1;rounded=0;exitX=0.5;exitY=0;exitDx=0;exitDy=0;entryX=0.5;entryY=1;entryDx=0;entryDy=0;" edge="1" parent="1" source="UYJxip9CrR3DzAZS0dff-29" target="UYJxip9CrR3DzAZS0dff-2">
          <mxGeometry width="50" height="50" relative="1" as="geometry">
            <mxPoint x="313.5" y="445" as="sourcePoint" />
            <mxPoint x="313.5" y="390" as="targetPoint" />
          </mxGeometry>
        </mxCell>
        <mxCell id="UYJxip9CrR3DzAZS0dff-33" value="(1,n)" style="text;html=1;strokeColor=none;fillColor=none;align=center;verticalAlign=middle;whiteSpace=wrap;rounded=0;" vertex="1" parent="1">
          <mxGeometry x="324" y="390" width="60" height="30" as="geometry" />
        </mxCell>
        <mxCell id="UYJxip9CrR3DzAZS0dff-34" value="設備" style="rounded=0;whiteSpace=wrap;html=1;" vertex="1" parent="1">
          <mxGeometry x="530" y="320" width="120" height="60" as="geometry" />
        </mxCell>
        <mxCell id="UYJxip9CrR3DzAZS0dff-35" value="供應商" style="rounded=0;whiteSpace=wrap;html=1;" vertex="1" parent="1">
          <mxGeometry x="530" y="555" width="120" height="60" as="geometry" />
        </mxCell>
        <mxCell id="UYJxip9CrR3DzAZS0dff-37" value="供應" style="rhombus;whiteSpace=wrap;html=1;" vertex="1" parent="1">
          <mxGeometry x="490" y="430" width="200" height="80" as="geometry" />
        </mxCell>
        <mxCell id="UYJxip9CrR3DzAZS0dff-39" value="" style="endArrow=none;html=1;rounded=0;exitX=0.5;exitY=0;exitDx=0;exitDy=0;entryX=0.5;entryY=1;entryDx=0;entryDy=0;" edge="1" parent="1">
          <mxGeometry width="50" height="50" relative="1" as="geometry">
            <mxPoint x="590" y="430" as="sourcePoint" />
            <mxPoint x="590" y="380" as="targetPoint" />
          </mxGeometry>
        </mxCell>
        <mxCell id="UYJxip9CrR3DzAZS0dff-42" value="" style="endArrow=none;html=1;rounded=0;exitX=0.5;exitY=0;exitDx=0;exitDy=0;entryX=0.5;entryY=1;entryDx=0;entryDy=0;" edge="1" parent="1">
          <mxGeometry width="50" height="50" relative="1" as="geometry">
            <mxPoint x="589.4100000000001" y="555" as="sourcePoint" />
            <mxPoint x="589.4100000000001" y="510" as="targetPoint" />
          </mxGeometry>
        </mxCell>
        <mxCell id="UYJxip9CrR3DzAZS0dff-44" value="產品" style="rounded=0;whiteSpace=wrap;html=1;" vertex="1" parent="1">
          <mxGeometry x="530" y="70" width="120" height="60" as="geometry" />
        </mxCell>
        <mxCell id="UYJxip9CrR3DzAZS0dff-46" value="製程" style="rhombus;whiteSpace=wrap;html=1;" vertex="1" parent="1">
          <mxGeometry x="490" y="190" width="200" height="80" as="geometry" />
        </mxCell>
        <mxCell id="UYJxip9CrR3DzAZS0dff-47" value="" style="endArrow=none;html=1;rounded=0;entryX=0.5;entryY=1;entryDx=0;entryDy=0;exitX=0.5;exitY=0;exitDx=0;exitDy=0;" edge="1" parent="1">
          <mxGeometry width="50" height="50" relative="1" as="geometry">
            <mxPoint x="589.4100000000001" y="190" as="sourcePoint" />
            <mxPoint x="589.4100000000001" y="130" as="targetPoint" />
          </mxGeometry>
        </mxCell>
        <mxCell id="UYJxip9CrR3DzAZS0dff-48" value="" style="endArrow=none;html=1;rounded=0;exitX=0.5;exitY=0;exitDx=0;exitDy=0;" edge="1" parent="1">
          <mxGeometry width="50" height="50" relative="1" as="geometry">
            <mxPoint x="589.4100000000001" y="320" as="sourcePoint" />
            <mxPoint x="589.4100000000001" y="270" as="targetPoint" />
          </mxGeometry>
        </mxCell>
        <mxCell id="UYJxip9CrR3DzAZS0dff-49" value="(1,n)" style="text;html=1;strokeColor=none;fillColor=none;align=center;verticalAlign=middle;whiteSpace=wrap;rounded=0;" vertex="1" parent="1">
          <mxGeometry x="600" y="150" width="60" height="30" as="geometry" />
        </mxCell>
        <mxCell id="UYJxip9CrR3DzAZS0dff-50" value="(1,n)" style="text;html=1;strokeColor=none;fillColor=none;align=center;verticalAlign=middle;whiteSpace=wrap;rounded=0;" vertex="1" parent="1">
          <mxGeometry x="600" y="400" width="60" height="30" as="geometry" />
        </mxCell>
        <mxCell id="UYJxip9CrR3DzAZS0dff-51" value="(1,n)" style="text;html=1;strokeColor=none;fillColor=none;align=center;verticalAlign=middle;whiteSpace=wrap;rounded=0;" vertex="1" parent="1">
          <mxGeometry x="610" y="510" width="60" height="30" as="geometry" />
        </mxCell>
      </root>
    </mxGraphModel>
  </diagram>
</mxfile>
